<?xml version="1.0" encoding="utf-8"?>
<!-- Generator: Adobe Illustrator 16.0.0, SVG Export Plug-In . SVG Version: 6.00 Build 0)  -->
<!DOCTYPE svg PUBLIC "-//W3C//DTD SVG 1.1//EN" "http://www.w3.org/Graphics/SVG/1.1/DTD/svg11.dtd">
<svg version="1.1" id="Layer_1" xmlns="http://www.w3.org/2000/svg" xmlns:xlink="http://www.w3.org/1999/xlink" x="0px" y="0px"
	 width="200px" height="200px" viewBox="0 0 200 200" enable-background="new 0 0 200 200" xml:space="preserve">
<g>
	
		<image overflow="visible" enable-background="new    " width="258" height="258" xlink:href="../../EDC VERSION 3.0/edc-storeicon.png"  transform="matrix(0.5388 0 0 0.5388 33.5869 6.9995)">
	</image>
	<g>
		<path fill="#FFFFFF" d="M8,166.07h3.777c3.201,0,3.777,2.193,3.777,5.556c0,4.049-0.864,5.874-3.921,5.874H8V166.07z
			 M10.304,175.804h1.024c1.601,0,1.921-1.009,1.921-4.114c0-2.593-0.208-3.922-1.969-3.922h-0.976V175.804z"/>
		<path fill="#FFFFFF" d="M17.087,165.942h2.209v1.89h-2.209V165.942z M17.087,168.889h2.209v8.611h-2.209V168.889z"/>
		<path fill="#FFFFFF" d="M22.463,174.683v0.288c0,0.753,0.4,1.249,1.152,1.249c0.672,0,1.121-0.336,1.121-1.024
			c0-0.561-0.368-0.815-0.8-0.977l-1.553-0.561c-1.216-0.433-1.841-1.186-1.841-2.4c0-1.425,0.896-2.594,3.169-2.594
			c2,0,2.945,0.896,2.945,2.448v0.354h-1.985c0-0.864-0.256-1.297-0.977-1.297c-0.56,0-1.041,0.319-1.041,0.929
			c0,0.416,0.224,0.769,0.96,1.008l1.329,0.448c1.393,0.465,1.905,1.169,1.905,2.465c0,1.811-1.345,2.705-3.201,2.705
			c-2.481,0-3.169-1.088-3.169-2.736v-0.305H22.463L22.463,174.683z"/>
		<path fill="#FFFFFF" d="M28.431,166.424h2.209v2.465h1.281v1.505H30.64v4.657c0,0.673,0.144,0.944,0.784,0.944
			c0.176,0,0.353-0.017,0.497-0.032v1.537c-0.48,0.048-0.929,0.096-1.441,0.096c-1.729,0-2.049-0.528-2.049-2.271v-4.931h-1.12
			v-1.505h1.12V166.424z"/>
		<path fill="#FFFFFF" d="M32.687,168.889H34.8v1.152h0.032c0.448-0.832,1.072-1.377,1.985-1.377c0.128,0,0.272,0.017,0.4,0.031
			v2.113c-0.224-0.017-0.464-0.032-0.688-0.032c-0.768,0-1.632,0.4-1.632,1.554v5.17h-2.21V168.889z"/>
		<path fill="#FFFFFF" d="M38.095,165.942h2.209v1.89h-2.209V165.942z M38.095,168.889h2.209v8.611h-2.209V168.889z"/>
		<path fill="#FFFFFF" d="M41.855,166.07h2.209v3.617h0.032c0.464-0.688,1.024-1.023,1.857-1.023c1.809,0,2.641,1.329,2.641,4.529
			c0,3.201-0.833,4.529-2.641,4.529c-0.864,0-1.473-0.336-1.953-1.136h-0.033v0.912h-2.113L41.855,166.07L41.855,166.07z
			 M45.232,176.026c0.96,0,1.152-0.96,1.152-2.833s-0.192-2.833-1.152-2.833c-0.977,0-1.168,0.96-1.168,2.833
			S44.255,176.026,45.232,176.026z"/>
		<path fill="#FFFFFF" d="M54.273,176.491h-0.032c-0.464,0.849-1.265,1.231-2.193,1.231c-1.376,0-2.193-0.752-2.193-2.448v-6.387
			h2.209v5.938c0,0.863,0.288,1.199,0.944,1.199c0.752,0,1.168-0.464,1.168-1.425v-5.714h2.209v8.611h-2.113L54.273,176.491
			L54.273,176.491z"/>
		<path fill="#FFFFFF" d="M57.935,165.942h2.209v1.89h-2.209V165.942z M57.935,168.889h2.209v8.611h-2.209V168.889z"/>
		<path fill="#FFFFFF" d="M66.112,176.588H66.08c-0.48,0.8-1.088,1.136-1.953,1.136c-1.809,0-2.641-1.328-2.641-4.529
			c0-3.2,0.832-4.529,2.641-4.529c0.832,0,1.393,0.337,1.856,1.023h0.032v-3.617h2.209V177.5h-2.113L66.112,176.588L66.112,176.588z
			 M64.848,176.026c0.977,0,1.168-0.96,1.168-2.833s-0.192-2.833-1.168-2.833c-0.96,0-1.152,0.96-1.152,2.833
			S63.887,176.026,64.848,176.026z"/>
		<path fill="#FFFFFF" d="M72.8,168.664c2.657-0.048,3.393,1.537,3.393,4.529c0,2.945-0.864,4.529-3.393,4.529
			c-2.657,0.049-3.394-1.536-3.394-4.529C69.406,170.249,70.271,168.664,72.8,168.664z M72.8,176.22
			c0.896,0,1.184-0.881,1.184-3.025c0-2.144-0.288-3.024-1.184-3.024c-1.089,0-1.185,1.265-1.185,3.024
			C71.615,174.955,71.711,176.22,72.8,176.22z"/>
		<path fill="#FFFFFF" d="M77.374,168.889h2.113v1.152h0.032c0.448-0.832,1.072-1.377,1.985-1.377c0.128,0,0.272,0.017,0.4,0.031
			v2.113c-0.224-0.017-0.464-0.032-0.688-0.032c-0.768,0-1.632,0.4-1.632,1.554v5.17h-2.209L77.374,168.889L77.374,168.889z"/>
		<path fill="#FFFFFF" d="M89.648,168.664c2.657-0.048,3.394,1.537,3.394,4.529c0,2.945-0.865,4.529-3.394,4.529
			c-2.657,0.049-3.394-1.536-3.394-4.529C86.254,170.249,87.118,168.664,89.648,168.664z M89.648,176.22
			c0.896,0,1.185-0.881,1.185-3.025c0-2.144-0.288-3.024-1.185-3.024c-1.089,0-1.185,1.265-1.185,3.024
			C88.463,174.955,88.559,176.22,89.648,176.22z"/>
		<path fill="#FFFFFF" d="M94.702,170.394h-1.121v-1.505h1.121v-0.977c0-1.554,0.88-2.064,2.305-2.064
			c0.4,0,0.784,0.016,1.185,0.048v1.568c-0.145-0.017-0.288-0.017-0.433-0.017c-0.624,0-0.848,0.191-0.848,0.688v0.753h1.28v1.505
			h-1.28v7.106h-2.209V170.394z M99.056,165.942h2.209v1.89h-2.209V165.942z M99.056,168.889h2.209v8.611h-2.209V168.889z"/>
		<path fill="#FFFFFF" d="M106.959,171.994c0-0.833-0.16-1.729-0.992-1.729c-1.089,0-1.265,0.961-1.265,2.945
			c0,2.129,0.192,3.01,1.185,3.01c0.736,0,1.072-0.624,1.072-2.017h2.113c0,2.257-0.944,3.521-3.281,3.521
			c-2.209,0-3.298-1.072-3.298-4.529c0-3.536,1.456-4.529,3.489-4.529s3.09,1.297,3.09,3.33L106.959,171.994L106.959,171.994z"/>
		<path fill="#FFFFFF" d="M110.302,165.942h2.209v1.89h-2.209V165.942z M110.302,168.889h2.209v8.611h-2.209V168.889z"/>
		<path fill="#FFFFFF" d="M114.046,171.528v-0.208c0-1.983,1.36-2.656,3.024-2.656c2.625,0,3.121,1.089,3.121,2.642v4.529
			c0,0.801,0.049,1.169,0.271,1.665h-2.111c-0.146-0.272-0.209-0.608-0.272-0.896h-0.032c-0.512,0.896-1.136,1.12-2.191,1.12
			c-1.537,0-2.082-1.313-2.082-2.465c0-1.616,0.656-2.272,2.178-2.688l1.248-0.337c0.656-0.176,0.881-0.432,0.881-1.008
			c0-0.656-0.288-1.057-1.023-1.057c-0.673,0-1.025,0.448-1.025,1.12v0.239H114.046z M118.079,173.193
			c-0.304,0.225-0.673,0.368-0.944,0.433c-0.896,0.191-1.249,0.625-1.249,1.393c0,0.656,0.24,1.201,0.833,1.201
			c0.592,0,1.36-0.385,1.36-1.329V173.193z"/>
		<path fill="#FFFFFF" d="M121.837,166.07h2.209v11.43h-2.209V166.07z"/>
		<path fill="#FFFFFF" d="M133.855,176.588h-0.033c-0.479,0.8-1.088,1.136-1.952,1.136c-1.81,0-2.642-1.328-2.642-4.529
			c0-3.2,0.832-4.529,2.642-4.529c0.833,0,1.393,0.337,1.856,1.023h0.031v-3.617h2.209V177.5h-2.111V176.588z M132.59,176.026
			c0.977,0,1.168-0.96,1.168-2.833s-0.191-2.833-1.168-2.833c-0.961,0-1.152,0.96-1.152,2.833S131.629,176.026,132.59,176.026z"/>
		<path fill="#FFFFFF" d="M137.421,171.528v-0.208c0-1.983,1.36-2.656,3.024-2.656c2.625,0,3.121,1.089,3.121,2.642v4.529
			c0,0.801,0.049,1.169,0.271,1.665h-2.111c-0.146-0.272-0.209-0.608-0.272-0.896h-0.032c-0.512,0.896-1.136,1.12-2.191,1.12
			c-1.537,0-2.082-1.313-2.082-2.465c0-1.616,0.656-2.272,2.178-2.688l1.248-0.337c0.656-0.176,0.881-0.432,0.881-1.008
			c0-0.656-0.288-1.057-1.024-1.057c-0.672,0-1.024,0.448-1.024,1.12v0.239H137.421z M141.454,173.193
			c-0.304,0.225-0.673,0.368-0.944,0.433c-0.896,0.191-1.249,0.625-1.249,1.393c0,0.656,0.24,1.201,0.833,1.201
			c0.592,0,1.36-0.385,1.36-1.329V173.193z"/>
		<path fill="#FFFFFF" d="M155.423,166.07v1.89h-4.081v2.688h3.842v1.89h-3.842v3.072h4.241v1.89h-6.546v-11.43H155.423
			L155.423,166.07z"/>
		<path fill="#FFFFFF" d="M156.844,166.07h3.777c3.201,0,3.777,2.193,3.777,5.556c0,4.049-0.863,5.874-3.922,5.874h-3.634
			L156.844,166.07L156.844,166.07z M159.15,175.804h1.023c1.602,0,1.92-1.009,1.92-4.114c0-2.593-0.208-3.922-1.969-3.922h-0.977
			v8.036H159.15z"/>
		<path fill="#FFFFFF" d="M170.799,169.929c0-1.664-0.337-2.385-1.377-2.385c-1.168,0-1.439,1.169-1.439,4.4
			c0,3.458,0.479,4.082,1.473,4.082c0.832,0,1.439-0.432,1.439-2.896h2.305c0,2.466-0.607,4.594-3.633,4.594
			c-3.457,0-3.89-2.465-3.89-5.938c0-3.475,0.433-5.938,3.89-5.938c3.297,0,3.537,2.417,3.537,4.081H170.799L170.799,169.929z"/>
		<path fill="#FFFFFF" d="M178.396,166.07h3.426l1.633,8.067h0.031l1.648-8.067h3.409v11.43h-2.112v-9.124H186.4l-2.033,9.124
			h-1.793l-2.032-9.124h-0.032v9.124h-2.111v-11.43H178.396z"/>
		<path fill="#FFFFFF" d="M189.771,175.818l4.211-7.858h-3.922v-1.89h6.578v1.745l-4.273,7.795h4.339v1.89h-6.933V175.818z"/>
	</g>
</g>
</svg>
