<?xml version="1.0" encoding="utf-8"?>
<!-- Generator: Adobe Illustrator 16.0.0, SVG Export Plug-In . SVG Version: 6.00 Build 0)  -->
<!DOCTYPE svg PUBLIC "-//W3C//DTD SVG 1.1//EN" "http://www.w3.org/Graphics/SVG/1.1/DTD/svg11.dtd">
<svg version="1.1" id="Layer_1" xmlns="http://www.w3.org/2000/svg" xmlns:xlink="http://www.w3.org/1999/xlink" x="0px" y="0px"
	 width="150px" height="53px" viewBox="0 0 150 53" enable-background="new 0 0 150 53" xml:space="preserve">
<g>
	<path fill="#FFFFFF" d="M2.2,8.564h6.719v28.555H2.2V8.564z"/>
	<path fill="#FFFFFF" d="M13.2,8.564h7.719l5.519,18.557h0.08V8.564h6.239v28.555h-7.599l-5.879-19.676h-0.08v19.676H13.2V8.564z"/>
	<path fill="#FFFFFF" d="M46.317,37.68c-8.838,0-10.038-5.76-10.038-14.838s1.2-14.837,10.038-14.837
		c9.479,0,10.038,6.919,10.038,14.837C56.355,30.761,55.796,37.68,46.317,37.68z M46.277,33.2c2.72,0,3.12-2.52,3.12-10.358
		c0-7.838-0.4-10.358-3.12-10.358c-2.68,0-3.04,2.52-3.04,10.358C43.238,30.681,43.598,33.2,46.277,33.2z"/>
	<path fill="#FFFFFF" d="M57.399,8.564h7.198l3.399,22.076h0.08l3.439-22.076h7.199l-6.479,28.555h-8.559L57.399,8.564z"/>
	<path fill="#FFFFFF" d="M84.678,8.564h8.399l7.118,28.555h-6.959l-1.039-5.438h-6.839l-1,5.438h-6.959L84.678,8.564z
		 M88.758,13.764h-0.08l-2.36,12.718h4.88L88.758,13.764z"/>
	<path fill="#FFFFFF" d="M104.318,14.003h-5.999V8.564h18.717v5.439h-5.999v23.116h-6.719V14.003z"/>
	<path fill="#FFFFFF" d="M119.479,8.564h6.72v28.555h-6.72V8.564z"/>
	<path fill="#FFFFFF" d="M136.038,28.4v1c0,2.16,0.56,3.8,2.92,3.8c2.359,0,3.039-1.76,3.039-3.399
		c0-6.158-12.278-2.719-12.278-13.397c0-4.56,2.44-8.399,9.358-8.399c6.72,0,9.119,3.439,9.119,7.799v0.68h-6.479
		c0-1.399-0.199-2.399-0.56-3c-0.399-0.68-1.08-1-2.04-1c-1.72,0-2.679,1-2.679,3.08c0,5.999,12.277,2.919,12.277,13.038
		c0,6.519-3.6,9.078-9.758,9.078c-4.92,0-9.398-1.48-9.398-7.439V28.4H136.038z"/>
</g>
</svg>
