<?xml version="1.0" encoding="utf-8"?>
<!-- Generator: Adobe Illustrator 16.0.0, SVG Export Plug-In . SVG Version: 6.00 Build 0)  -->
<!DOCTYPE svg PUBLIC "-//W3C//DTD SVG 1.1//EN" "http://www.w3.org/Graphics/SVG/1.1/DTD/svg11.dtd">
<svg version="1.1" id="Layer_1" xmlns="http://www.w3.org/2000/svg" xmlns:xlink="http://www.w3.org/1999/xlink" x="0px" y="0px"
	 width="200px" height="200px" viewBox="0 0 200 200" enable-background="new 0 0 200 200" xml:space="preserve">
<image overflow="visible" width="258" height="258" xlink:href="EDC VERSION 3.0/edc-storeicon.png"  transform="matrix(0.5388 0 0 0.5388 30.5 0)">
</image>
<g>
	<path fill="#FFFFFF" d="M4.913,159.071H8.69c3.201,0,3.777,2.193,3.777,5.555c0,4.049-0.864,5.874-3.921,5.874H4.913V159.071z
		 M7.217,168.804h1.024c1.601,0,1.921-1.009,1.921-4.114c0-2.593-0.208-3.922-1.969-3.922H7.217V168.804z"/>
	<path fill="#FFFFFF" d="M14,158.943h2.209v1.889H14V158.943z M14,161.889h2.209v8.611H14V161.889z"/>
	<path fill="#FFFFFF" d="M19.376,167.683v0.288c0,0.753,0.4,1.249,1.152,1.249c0.672,0,1.121-0.336,1.121-1.024
		c0-0.561-0.368-0.816-0.8-0.977l-1.553-0.561c-1.216-0.432-1.841-1.185-1.841-2.4c0-1.425,0.896-2.594,3.169-2.594
		c2,0,2.945,0.896,2.945,2.449v0.353h-1.985c0-0.864-0.256-1.297-0.977-1.297c-0.56,0-1.041,0.32-1.041,0.929
		c0,0.416,0.224,0.768,0.96,1.008l1.329,0.448c1.393,0.465,1.905,1.169,1.905,2.465c0,1.81-1.345,2.705-3.201,2.705
		c-2.481,0-3.169-1.088-3.169-2.736v-0.305H19.376z"/>
	<path fill="#FFFFFF" d="M25.344,159.424h2.209v2.465h1.281v1.505h-1.281v4.657c0,0.673,0.144,0.944,0.784,0.944
		c0.176,0,0.353-0.016,0.497-0.032v1.537c-0.48,0.048-0.929,0.096-1.441,0.096c-1.729,0-2.049-0.528-2.049-2.272v-4.93h-1.12v-1.505
		h1.12V159.424z"/>
	<path fill="#FFFFFF" d="M29.6,161.889h2.113v1.152h0.032c0.448-0.832,1.072-1.377,1.985-1.377c0.128,0,0.272,0.017,0.4,0.032v2.113
		c-0.224-0.017-0.464-0.032-0.688-0.032c-0.768,0-1.632,0.4-1.632,1.553v5.17H29.6V161.889z"/>
	<path fill="#FFFFFF" d="M35.008,158.943h2.209v1.889h-2.209V158.943z M35.008,161.889h2.209v8.611h-2.209V161.889z"/>
	<path fill="#FFFFFF" d="M38.768,159.071h2.209v3.617h0.032c0.464-0.688,1.024-1.024,1.857-1.024c1.809,0,2.641,1.329,2.641,4.53
		s-0.833,4.529-2.641,4.529c-0.864,0-1.473-0.336-1.953-1.136H40.88v0.912h-2.113V159.071z M42.145,169.027
		c0.96,0,1.152-0.96,1.152-2.833s-0.192-2.833-1.152-2.833c-0.977,0-1.168,0.96-1.168,2.833S41.168,169.027,42.145,169.027z"/>
	<path fill="#FFFFFF" d="M51.186,169.491h-0.032c-0.464,0.849-1.265,1.232-2.193,1.232c-1.376,0-2.193-0.752-2.193-2.448v-6.387
		h2.209v5.938c0,0.864,0.288,1.2,0.944,1.2c0.752,0,1.168-0.464,1.168-1.425v-5.714h2.209v8.611h-2.113V169.491z"/>
	<path fill="#FFFFFF" d="M54.848,158.943h2.209v1.889h-2.209V158.943z M54.848,161.889h2.209v8.611h-2.209V161.889z"/>
	<path fill="#FFFFFF" d="M63.025,169.588h-0.032c-0.48,0.8-1.088,1.136-1.953,1.136c-1.809,0-2.641-1.328-2.641-4.529
		s0.832-4.53,2.641-4.53c0.832,0,1.393,0.337,1.856,1.024h0.032v-3.617h2.209V170.5h-2.113V169.588z M61.761,169.027
		c0.977,0,1.168-0.96,1.168-2.833s-0.192-2.833-1.168-2.833c-0.96,0-1.152,0.96-1.152,2.833S60.8,169.027,61.761,169.027z"/>
	<path fill="#FFFFFF" d="M69.713,161.664c2.657-0.048,3.393,1.537,3.393,4.53c0,2.945-0.864,4.529-3.393,4.529
		c-2.657,0.049-3.394-1.536-3.394-4.529C66.319,163.249,67.184,161.664,69.713,161.664z M69.713,169.22
		c0.896,0,1.184-0.881,1.184-3.025s-0.288-3.025-1.184-3.025c-1.089,0-1.185,1.265-1.185,3.025S68.624,169.22,69.713,169.22z"/>
	<path fill="#FFFFFF" d="M74.287,161.889H76.4v1.152h0.032c0.448-0.832,1.072-1.377,1.985-1.377c0.128,0,0.272,0.017,0.4,0.032
		v2.113c-0.224-0.017-0.464-0.032-0.688-0.032c-0.768,0-1.632,0.4-1.632,1.553v5.17h-2.209V161.889z"/>
	<path fill="#FFFFFF" d="M86.561,161.664c2.657-0.048,3.394,1.537,3.394,4.53c0,2.945-0.865,4.529-3.394,4.529
		c-2.657,0.049-3.394-1.536-3.394-4.529C83.167,163.249,84.031,161.664,86.561,161.664z M86.561,169.22
		c0.896,0,1.185-0.881,1.185-3.025s-0.288-3.025-1.185-3.025c-1.089,0-1.185,1.265-1.185,3.025S85.472,169.22,86.561,169.22z"/>
	<path fill="#FFFFFF" d="M91.615,163.394h-1.121v-1.505h1.121v-0.977c0-1.553,0.88-2.064,2.305-2.064c0.4,0,0.784,0.016,1.185,0.048
		v1.568c-0.145-0.016-0.288-0.016-0.433-0.016c-0.624,0-0.848,0.191-0.848,0.688v0.753h1.28v1.505h-1.28v7.106h-2.209V163.394z
		 M95.969,158.943h2.209v1.889h-2.209V158.943z M95.969,161.889h2.209v8.611h-2.209V161.889z"/>
	<path fill="#FFFFFF" d="M103.872,164.994c0-0.833-0.16-1.729-0.992-1.729c-1.089,0-1.265,0.961-1.265,2.945
		c0,2.129,0.192,3.01,1.185,3.01c0.736,0,1.072-0.624,1.072-2.017h2.113c0,2.257-0.944,3.521-3.281,3.521
		c-2.209,0-3.298-1.072-3.298-4.529c0-3.537,1.457-4.53,3.489-4.53c2.033,0,3.09,1.297,3.09,3.33H103.872z"/>
	<path fill="#FFFFFF" d="M107.215,158.943h2.209v1.889h-2.209V158.943z M107.215,161.889h2.209v8.611h-2.209V161.889z"/>
	<path fill="#FFFFFF" d="M110.959,164.529v-0.208c0-1.984,1.36-2.657,3.024-2.657c2.625,0,3.122,1.089,3.122,2.642v4.529
		c0,0.801,0.048,1.169,0.271,1.665h-2.112c-0.145-0.272-0.208-0.608-0.272-0.896h-0.032c-0.512,0.896-1.136,1.12-2.192,1.12
		c-1.537,0-2.081-1.313-2.081-2.465c0-1.616,0.656-2.272,2.177-2.688l1.249-0.337c0.656-0.176,0.88-0.432,0.88-1.008
		c0-0.656-0.288-1.057-1.024-1.057c-0.672,0-1.024,0.448-1.024,1.12v0.24H110.959z M114.992,166.194
		c-0.304,0.224-0.672,0.368-0.944,0.432c-0.896,0.192-1.249,0.625-1.249,1.393c0,0.656,0.24,1.201,0.833,1.201
		c0.592,0,1.36-0.385,1.36-1.329V166.194z"/>
	<path fill="#FFFFFF" d="M118.75,159.071h2.209V170.5h-2.209V159.071z"/>
	<path fill="#FFFFFF" d="M130.768,169.588h-0.032c-0.48,0.8-1.089,1.136-1.953,1.136c-1.809,0-2.641-1.328-2.641-4.529
		s0.832-4.53,2.641-4.53c0.833,0,1.393,0.337,1.857,1.024h0.031v-3.617h2.209V170.5h-2.112V169.588z M129.503,169.027
		c0.977,0,1.168-0.96,1.168-2.833s-0.191-2.833-1.168-2.833c-0.961,0-1.152,0.96-1.152,2.833S128.542,169.027,129.503,169.027z"/>
	<path fill="#FFFFFF" d="M134.334,164.529v-0.208c0-1.984,1.36-2.657,3.024-2.657c2.625,0,3.122,1.089,3.122,2.642v4.529
		c0,0.801,0.048,1.169,0.271,1.665h-2.112c-0.145-0.272-0.208-0.608-0.272-0.896h-0.032c-0.512,0.896-1.136,1.12-2.192,1.12
		c-1.537,0-2.081-1.313-2.081-2.465c0-1.616,0.656-2.272,2.177-2.688l1.249-0.337c0.656-0.176,0.88-0.432,0.88-1.008
		c0-0.656-0.288-1.057-1.024-1.057c-0.672,0-1.024,0.448-1.024,1.12v0.24H134.334z M138.367,166.194
		c-0.304,0.224-0.672,0.368-0.944,0.432c-0.896,0.192-1.249,0.625-1.249,1.393c0,0.656,0.24,1.201,0.833,1.201
		c0.592,0,1.36-0.385,1.36-1.329V166.194z"/>
	<path fill="#FFFFFF" d="M152.336,159.071v1.889h-4.081v2.689h3.842v1.889h-3.842v3.073h4.241v1.889h-6.546v-11.429H152.336z"/>
	<path fill="#FFFFFF" d="M153.757,159.071h3.777c3.202,0,3.778,2.193,3.778,5.555c0,4.049-0.864,5.874-3.922,5.874h-3.634V159.071z
		 M156.063,168.804h1.024c1.601,0,1.92-1.009,1.92-4.114c0-2.593-0.208-3.922-1.969-3.922h-0.976V168.804z"/>
	<path fill="#FFFFFF" d="M167.712,162.929c0-1.664-0.337-2.385-1.377-2.385c-1.168,0-1.44,1.169-1.44,4.401
		c0,3.458,0.48,4.082,1.473,4.082c0.832,0,1.44-0.432,1.44-2.897h2.305c0,2.466-0.608,4.594-3.633,4.594
		c-3.458,0-3.89-2.465-3.89-5.938c0-3.474,0.432-5.938,3.89-5.938c3.297,0,3.537,2.417,3.537,4.081H167.712z"/>
	<path fill="#FFFFFF" d="M175.31,159.071h3.425l1.633,8.067h0.032l1.648-8.067h3.409V170.5h-2.112v-9.124h-0.032l-2.033,9.124
		h-1.792l-2.033-9.124h-0.032v9.124h-2.112V159.071z"/>
	<path fill="#FFFFFF" d="M186.685,168.819l4.21-7.859h-3.922v-1.889h6.579v1.745l-4.273,7.795h4.338v1.889h-6.932V168.819z"/>
</g>
</svg>
